HIERARCHY
ROOT Hips
{
	OFFSET 0.0000 0.0000 0.0000
	CHANNELS 6 Xposition Yposition Zposition Zrotation Xrotation Yrotation
	JOINT Ab
	{
		OFFSET -0.0000 8.0846 -0.0000
		CHANNELS 3 Zrotation Xrotation Yrotation
		JOINT Chest
		{
			OFFSET -0.0000 25.0068 -0.0000
			CHANNELS 3 Zrotation Xrotation Yrotation
			JOINT Neck
			{
				OFFSET -0.0000 25.0068 0.0000
				CHANNELS 3 Zrotation Xrotation Yrotation
				JOINT Head
				{
					OFFSET -0.0000 10.7556 0.0000
					CHANNELS 3 Zrotation Xrotation Yrotation
					End Site
					{
						OFFSET -0.0000 16.6222 0.0000
					}
				}
			}
			JOINT LeftCollar
			{
				OFFSET -0.0000 25.0068 0.0000
				CHANNELS 3 Zrotation Xrotation Yrotation
				JOINT LeftShoulder
				{
					OFFSET 19.5556 -0.0000 0.0000
					CHANNELS 3 Zrotation Xrotation Yrotation
					JOINT LeftElbow
					{
						OFFSET 27.1828 0.0000 0.0000
						CHANNELS 3 Zrotation Xrotation Yrotation
						JOINT LeftWrist
						{
							OFFSET 23.3157 0.0000 0.0000
							CHANNELS 3 Zrotation Xrotation Yrotation
							End Site
							{
								OFFSET 0.0000 -14.6667 0.0000
							}
						}
					}
				}
			}
			JOINT RightCollar
			{
				OFFSET -0.0000 25.0068 0.0000
				CHANNELS 3 Zrotation Xrotation Yrotation
				JOINT RightShoulder
				{
					OFFSET -19.5556 0.0000 0.0000
					CHANNELS 3 Zrotation Xrotation Yrotation
					JOINT RightElbow
					{
						OFFSET -27.1828 0.0000 0.0000
						CHANNELS 3 Zrotation Xrotation Yrotation
						JOINT RightWrist
						{
							OFFSET -23.3157 0.0000 0.0000
							CHANNELS 3 Zrotation Xrotation Yrotation
							End Site
							{
								OFFSET -0.0000 -14.6667 0.0000
							}
						}
					}
				}
			}
		}
	}
	JOINT LeftHip
	{
		OFFSET 11.7333 0.0000 0.0000
		CHANNELS 3 Zrotation Xrotation Yrotation
		JOINT LeftKnee
		{
			OFFSET -0.0000 -40.8688 0.0000
			CHANNELS 3 Zrotation Xrotation Yrotation
			JOINT LeftAnkle
			{
				OFFSET -0.0000 -44.4337 0.0000
				CHANNELS 3 Zrotation Xrotation Yrotation
				End Site
				{
					OFFSET -0.0000 -4.8889 16.6222
				}
			}
		}
	}
	JOINT RightHip
	{
		OFFSET -11.7333 0.0000 0.0000
		CHANNELS 3 Zrotation Xrotation Yrotation
		JOINT RightKnee
		{
			OFFSET -0.0000 -40.8688 0.0000
			CHANNELS 3 Zrotation Xrotation Yrotation
			JOINT RightAnkle
			{
				OFFSET -0.0000 -44.4337 0.0000
				CHANNELS 3 Zrotation Xrotation Yrotation
				End Site
				{
					OFFSET -0.0000 -4.8889 16.6222
				}
			}
		}
	}
}
MOTION
Frames: 7
Frame Time: 0.010000
-3.1030 88.9243 191.3101 2.4273 358.4911 176.7035 1.9557 357.9647 358.2325 357.6282 12.6527 358.4629 2.9691 344.0830 1.3353 2.3049 10.7015 0.6954 339.5223 358.6174 7.7056 301.1683 30.2721 353.5163 17.4415 354.1546 323.1516 82.0159 1.5981 342.4670 22.4575 359.3566 356.7004 58.2490 43.5841 11.1109 337.9353 354.1578 29.3071 280.2711 353.5456 19.9275 1.1199 356.9073 356.5397 358.8817 10.0173 359.3797 0.6623 353.1551 20.9360 1.6685 352.0570 358.2105 359.5581 16.5007 5.9078 357.9402 345.8990 338.9407 
-3.1681 88.9250 191.3163 2.4441 358.4198 176.7671 1.9463 357.9170 358.2199 357.6352 12.6444 358.4481 2.9974 344.2139 1.1327 2.0493 10.6499 0.5123 339.5041 358.5868 7.7281 301.2478 30.7049 353.4653 17.6503 354.0544 323.1887 81.8932 1.6136 342.7389 22.4307 359.3383 356.6477 58.2430 43.5751 11.1112 337.8588 354.1604 29.3781 280.3323 353.5817 19.9388 1.0988 356.7835 356.5078 358.8858 10.0897 359.3126 0.7180 353.1398 20.9513 1.6381 351.9895 358.1364 359.5497 16.4903 5.8868 357.9751 345.8945 338.9817 
-3.2410 88.9232 191.3073 2.4426 358.4136 176.7479 1.9182 357.9340 358.2527 357.6518 12.6333 358.4782 2.9895 344.2035 1.0882 2.0149 10.7644 0.4752 339.4642 358.6013 7.8060 301.3004 30.9168 353.3779 17.6491 354.0902 323.2729 81.9180 1.5958 342.8211 22.3939 359.3603 356.6968 58.2665 43.3946 11.0258 337.9609 354.1621 29.4854 280.3493 353.6185 19.9907 1.0459 356.7643 356.5376 358.8880 10.1291 359.3445 0.7748 353.1307 20.9227 1.5938 351.9879 358.1655 359.5424 16.4728 5.8557 357.6961 345.9534 338.9565 
-3.3089 88.9239 191.2974 2.4532 358.4111 176.7162 1.9390 357.9622 358.2618 357.5924 12.6090 358.4942 3.0133 344.2649 1.0398 1.9752 10.7602 0.4333 339.5017 358.6346 7.6887 301.1318 30.3621 353.5199 17.3238 354.2369 323.0477 81.9804 1.7047 342.3806 22.4215 359.3389 356.6611 58.1903 43.3491 11.0491 338.2852 354.2628 29.5594 279.7921 353.5820 21.2870 1.0183 356.7464 356.5561 358.8700 10.1786 359.3523 0.8295 353.0959 20.9287 1.5680 351.9909 358.2700 359.5566 16.4656 5.7814 358.0957 345.9021 339.0263 
-3.3851 88.9227 191.2800 2.4606 358.4292 176.7013 1.9329 358.0018 358.2716 357.5623 12.5841 358.5062 3.0898 344.3668 0.9692 1.7724 10.7535 0.3760 339.5208 358.6090 7.6323 301.0205 30.1991 353.6458 17.2412 354.2288 322.9108 81.9665 1.7441 342.2377 22.4132 359.3113 356.6573 58.1843 43.3556 11.0175 338.3293 354.2320 29.6146 279.7993 353.6068 21.4682 0.9745 356.7605 356.6795 358.8924 10.2065 359.2147 0.8567 353.0700 20.9512 1.5376 352.0341 358.3173 359.5424 16.4257 5.6926 358.1700 345.9105 339.0974 
-3.4631 88.9194 191.2571 2.4762 358.4734 176.6879 1.9232 358.0463 358.2775 357.5690 12.5902 358.5136 3.1727 344.4426 0.9544 1.5150 10.7245 0.3717 339.4991 358.6460 7.6237 300.9947 30.2053 353.6609 17.1124 354.2649 322.9038 81.9931 1.7402 342.1786 22.3973 359.3466 356.6881 58.1910 43.2515 10.9752 338.3932 354.2288 29.6358 279.8541 353.5727 21.5262 0.9443 356.8120 356.6783 358.8719 10.2350 359.1731 0.9319 353.0476 21.0041 1.5024 352.1011 358.3830 359.5558 16.3993 5.6551 357.9221 345.9584 339.0234 
-3.5554 88.9125 191.2389 2.4815 358.4856 176.6464 1.9665 358.0794 358.2763 357.4863 12.5523 358.5187 3.0946 344.5778 0.8529 1.4972 10.7015 0.2825 339.5170 358.6201 7.6115 300.8937 30.0685 353.7685 17.0344 354.2630 322.7035 82.0128 1.8247 342.1040 22.3968 359.3809 356.7450 58.1880 43.1700 10.9273 338.3882 354.2259 29.7018 279.8858 353.6170 21.5740 0.8983 356.8341 356.6416 358.8415 10.2384 359.2326 0.9648 353.0236 21.0086 1.4588 352.1098 358.4201 359.5366 16.4119 5.6494 357.9189 345.9538 339.0251 
